<mxfile host="Electron" modified="2023-08-22T01:02:42.039Z" agent="Mozilla/5.0 (Macintosh; Intel Mac OS X 10_15_7) AppleWebKit/537.36 (KHTML, like Gecko) draw.io/21.5.1 Chrome/112.0.5615.204 Electron/24.6.0 Safari/537.36" etag="UKIBnEaWLxCju52sOTQN" version="21.5.1" type="device">
  <diagram name="Page-1" id="wHc_VbuNPGFZqPf-q75d">
    <mxGraphModel dx="1468" dy="1037" grid="1" gridSize="10" guides="1" tooltips="1" connect="1" arrows="1" fold="1" page="1" pageScale="1" pageWidth="1100" pageHeight="850" math="0" shadow="0">
      <root>
        <mxCell id="0" />
        <mxCell id="1" parent="0" />
        <mxCell id="HR96gfunDz-GDJ7HlgxT-5" style="rounded=0;orthogonalLoop=1;jettySize=auto;html=1;entryX=0.024;entryY=0.682;entryDx=0;entryDy=0;entryPerimeter=0;strokeWidth=10;" edge="1" parent="1" target="HR96gfunDz-GDJ7HlgxT-2">
          <mxGeometry relative="1" as="geometry">
            <mxPoint x="130" y="410" as="sourcePoint" />
          </mxGeometry>
        </mxCell>
        <mxCell id="HR96gfunDz-GDJ7HlgxT-7" style="rounded=0;orthogonalLoop=1;jettySize=auto;html=1;exitX=1;exitY=1;exitDx=0;exitDy=0;entryX=0;entryY=0.5;entryDx=0;entryDy=0;strokeWidth=10;" edge="1" parent="1" source="HR96gfunDz-GDJ7HlgxT-1" target="HR96gfunDz-GDJ7HlgxT-6">
          <mxGeometry relative="1" as="geometry" />
        </mxCell>
        <mxCell id="HR96gfunDz-GDJ7HlgxT-1" value="&lt;b&gt;&lt;font style=&quot;font-size: 48px;&quot;&gt;1&lt;/font&gt;&lt;/b&gt;" style="ellipse;whiteSpace=wrap;html=1;aspect=fixed;fillColor=#dae8fc;gradientColor=#7ea6e0;strokeColor=#6c8ebf;" vertex="1" parent="1">
          <mxGeometry x="30" y="385" width="115" height="115" as="geometry" />
        </mxCell>
        <mxCell id="HR96gfunDz-GDJ7HlgxT-9" style="edgeStyle=none;rounded=0;orthogonalLoop=1;jettySize=auto;html=1;strokeWidth=10;exitX=1;exitY=0.5;exitDx=0;exitDy=0;" edge="1" parent="1" source="HR96gfunDz-GDJ7HlgxT-2" target="HR96gfunDz-GDJ7HlgxT-8">
          <mxGeometry relative="1" as="geometry" />
        </mxCell>
        <mxCell id="HR96gfunDz-GDJ7HlgxT-14" style="edgeStyle=none;rounded=0;orthogonalLoop=1;jettySize=auto;html=1;entryX=0;entryY=0.5;entryDx=0;entryDy=0;strokeWidth=10;" edge="1" parent="1" source="HR96gfunDz-GDJ7HlgxT-2" target="HR96gfunDz-GDJ7HlgxT-12">
          <mxGeometry relative="1" as="geometry" />
        </mxCell>
        <mxCell id="HR96gfunDz-GDJ7HlgxT-2" value="&lt;b&gt;&lt;font style=&quot;font-size: 48px;&quot;&gt;2&lt;/font&gt;&lt;/b&gt;" style="ellipse;whiteSpace=wrap;html=1;aspect=fixed;fillColor=#dae8fc;gradientColor=#7ea6e0;strokeColor=#6c8ebf;" vertex="1" parent="1">
          <mxGeometry x="260" y="270" width="115" height="115" as="geometry" />
        </mxCell>
        <mxCell id="HR96gfunDz-GDJ7HlgxT-10" style="edgeStyle=none;rounded=0;orthogonalLoop=1;jettySize=auto;html=1;entryX=0.098;entryY=0.769;entryDx=0;entryDy=0;entryPerimeter=0;strokeWidth=10;" edge="1" parent="1" target="HR96gfunDz-GDJ7HlgxT-8">
          <mxGeometry relative="1" as="geometry">
            <mxPoint x="380" y="530" as="sourcePoint" />
          </mxGeometry>
        </mxCell>
        <mxCell id="HR96gfunDz-GDJ7HlgxT-18" style="edgeStyle=none;rounded=0;orthogonalLoop=1;jettySize=auto;html=1;entryX=0.044;entryY=0.304;entryDx=0;entryDy=0;entryPerimeter=0;strokeWidth=10;" edge="1" parent="1" source="HR96gfunDz-GDJ7HlgxT-6" target="HR96gfunDz-GDJ7HlgxT-17">
          <mxGeometry relative="1" as="geometry" />
        </mxCell>
        <mxCell id="HR96gfunDz-GDJ7HlgxT-6" value="&lt;b&gt;&lt;font style=&quot;font-size: 48px;&quot;&gt;3&lt;/font&gt;&lt;/b&gt;" style="ellipse;whiteSpace=wrap;html=1;aspect=fixed;fillColor=#dae8fc;gradientColor=#7ea6e0;strokeColor=#6c8ebf;" vertex="1" parent="1">
          <mxGeometry x="260" y="480" width="115" height="115" as="geometry" />
        </mxCell>
        <mxCell id="HR96gfunDz-GDJ7HlgxT-16" style="edgeStyle=none;rounded=0;orthogonalLoop=1;jettySize=auto;html=1;entryX=0;entryY=0.5;entryDx=0;entryDy=0;strokeWidth=10;" edge="1" parent="1" source="HR96gfunDz-GDJ7HlgxT-8" target="HR96gfunDz-GDJ7HlgxT-15">
          <mxGeometry relative="1" as="geometry" />
        </mxCell>
        <mxCell id="HR96gfunDz-GDJ7HlgxT-8" value="&lt;b&gt;&lt;font style=&quot;font-size: 48px;&quot;&gt;4&lt;/font&gt;&lt;/b&gt;" style="ellipse;whiteSpace=wrap;html=1;aspect=fixed;fillColor=#dae8fc;gradientColor=#7ea6e0;strokeColor=#6c8ebf;" vertex="1" parent="1">
          <mxGeometry x="470" y="380" width="115" height="115" as="geometry" />
        </mxCell>
        <mxCell id="HR96gfunDz-GDJ7HlgxT-12" value="&lt;span style=&quot;font-size: 48px;&quot;&gt;&lt;b&gt;5&lt;/b&gt;&lt;/span&gt;" style="ellipse;whiteSpace=wrap;html=1;aspect=fixed;fillColor=#dae8fc;gradientColor=#7ea6e0;strokeColor=#6c8ebf;" vertex="1" parent="1">
          <mxGeometry x="680" y="170" width="115" height="115" as="geometry" />
        </mxCell>
        <mxCell id="HR96gfunDz-GDJ7HlgxT-20" style="edgeStyle=none;rounded=0;orthogonalLoop=1;jettySize=auto;html=1;entryX=0;entryY=0;entryDx=0;entryDy=0;strokeWidth=10;" edge="1" parent="1" source="HR96gfunDz-GDJ7HlgxT-15" target="HR96gfunDz-GDJ7HlgxT-19">
          <mxGeometry relative="1" as="geometry" />
        </mxCell>
        <mxCell id="HR96gfunDz-GDJ7HlgxT-15" value="&lt;span style=&quot;font-size: 48px;&quot;&gt;&lt;b&gt;6&lt;/b&gt;&lt;/span&gt;" style="ellipse;whiteSpace=wrap;html=1;aspect=fixed;fillColor=#dae8fc;gradientColor=#7ea6e0;strokeColor=#6c8ebf;" vertex="1" parent="1">
          <mxGeometry x="680" y="380" width="115" height="115" as="geometry" />
        </mxCell>
        <mxCell id="HR96gfunDz-GDJ7HlgxT-21" style="edgeStyle=none;rounded=0;orthogonalLoop=1;jettySize=auto;html=1;entryX=0;entryY=1;entryDx=0;entryDy=0;strokeWidth=10;" edge="1" parent="1" source="HR96gfunDz-GDJ7HlgxT-17" target="HR96gfunDz-GDJ7HlgxT-19">
          <mxGeometry relative="1" as="geometry" />
        </mxCell>
        <mxCell id="HR96gfunDz-GDJ7HlgxT-17" value="&lt;b&gt;&lt;font style=&quot;font-size: 48px;&quot;&gt;7&lt;/font&gt;&lt;/b&gt;" style="ellipse;whiteSpace=wrap;html=1;aspect=fixed;fillColor=#dae8fc;gradientColor=#7ea6e0;strokeColor=#6c8ebf;" vertex="1" parent="1">
          <mxGeometry x="680" y="595" width="115" height="115" as="geometry" />
        </mxCell>
        <mxCell id="HR96gfunDz-GDJ7HlgxT-19" value="&lt;b&gt;&lt;font style=&quot;font-size: 48px;&quot;&gt;8&lt;/font&gt;&lt;/b&gt;" style="ellipse;whiteSpace=wrap;html=1;aspect=fixed;fillColor=#dae8fc;gradientColor=#7ea6e0;strokeColor=#6c8ebf;" vertex="1" parent="1">
          <mxGeometry x="910" y="495" width="115" height="115" as="geometry" />
        </mxCell>
        <mxCell id="HR96gfunDz-GDJ7HlgxT-23" value="&lt;font style=&quot;font-size: 61px;&quot;&gt;Example DAG&lt;/font&gt;" style="text;html=1;strokeColor=none;fillColor=none;align=center;verticalAlign=middle;whiteSpace=wrap;rounded=0;" vertex="1" parent="1">
          <mxGeometry x="270" y="50" width="560" height="30" as="geometry" />
        </mxCell>
      </root>
    </mxGraphModel>
  </diagram>
</mxfile>
